# xmcd
#
# Track frame offsets:
#	150
#	21452
#	37472
#	54975
#	69885
#	84052
#	100965
#	121670
#	136327
#	157215
#	171247
#
# Disc length: 2542 seconds
#
# Revision: 9
# Processed by: cddbd v1.5.2PL0 Copyright (c) Steve Scherf et al.
# Submitted via: EZCDAudioConverter 7.1.4.1
#
DISCID=9009ec0b
DTITLE=Alabama - Dancin on the Boulevard
DYEAR=1997
DGENRE=Country
TTITLE0=Dancin', Shaggin' On The Boulevard
TTITLE1=Sad Lookin' Moon
TTITLE2=Anytime (I'm Your Man)
TTITLE3=She's Got That Look In Her Eyes
TTITLE4=My Girl
TTITLE5=Of Course I'm Alright
TTITLE6=I Just Couldn't Say No
TTITLE7=Is The Magic Still There
TTITLE8=Calling All Angels
TTITLE9=Hey Baby
TTITLE10=One More Time Around
EXTD=
EXTT0=
EXTT1=
EXTT2=
EXTT3=
EXTT4=
EXTT5=
EXTT6=
EXTT7=
EXTT8=
EXTT9=
EXTT10=
PLAYORDER=
